<svg id="honey" enable-background="new 0 0 300 300" height="512" viewBox="0 0 300 300" width="512" xmlns="http://www.w3.org/2000/svg" xmlns:xlink="http://www.w3.org/1999/xlink"><linearGradient id="SVGID_1_" gradientUnits="userSpaceOnUse" x1="73.917" x2="252.134" y1="230.575" y2="52.359"><stop offset="0" stop-color="#107eff"/><stop offset="1" stop-color="#8f16ff"/></linearGradient><g><path d="m249.558 192c2.209 0 4 1.791 4 4v8c0 2.209-1.791 4-4 4s-4-1.791-4-4v-8c0-2.209 1.791-4 4-4zm0 24c-2.209 0-4 1.791-4 4v8c0 2.209 1.791 4 4 4s4-1.791 4-4v-8c0-2.209-1.791-4-4-4zm-8-8h-8c-2.209 0-4 1.791-4 4s1.791 4 4 4h8c2.209 0 4-1.791 4-4s-1.791-4-4-4zm24 0h-8c-2.209 0-4 1.791-4 4s1.791 4 4 4h8c2.209 0 4-1.791 4-4s-1.791-4-4-4zm-212-130c0-7.719 6.281-14 14-14s14 6.281 14 14-6.281 14-14 14-14-6.281-14-14zm8 0c0 3.309 2.691 6 6 6s6-2.691 6-6-2.691-6-6-6-6 2.691-6 6zm192.052 92.391c0 2.362 1.915 4.276 4.276 4.276s4.277-1.915 4.277-4.276-1.915-4.277-4.277-4.277-4.276 1.916-4.276 4.277zm-27.723-20.276c-2.362 0-4.276 1.915-4.276 4.277s1.915 4.276 4.276 4.276 4.277-1.915 4.277-4.276-1.915-4.277-4.277-4.277zm-99.114 3.885-17.32-30c-.713-1.238-.713-2.762 0-4l17.32-30c.715-1.238 2.035-2 3.465-2h34.641c1.43 0 2.75.762 3.465 2l17.32 30c.713 1.238.713 2.762 0 4l-17.32 30c-.715 1.238-2.035 2-3.465 2h-34.641c-1.43 0-2.75-.762-3.465-2zm-9.236-32 15.01 26h30.023l15.01-26-15.01-26h-30.023zm106.603 90c.713 1.238.713 2.762 0 4l-26.559 46c-.715 1.238-2.035 2-3.465 2h-53.116c-1.43 0-2.75-.762-3.465-2l-26.559-46h-49.976c-1.43 0-2.75-.762-3.465-2l-26.559-46c-.713-1.238-.713-2.762 0-4l26.559-46c.715-1.238 2.035-2 3.465-2h32.286l24.249-42c.715-1.238 2.035-2 3.465-2h36.906l19.629-34c.715-1.238 2.035-2 3.465-2h53.117c1.43 0 2.75.762 3.465 2l26.559 46c.713 1.238.713 2.762 0 4l-26.559 46c-.715 1.238-2.035 2-3.465 2h-36.905l-16.166 28h13.071c1.43 0 2.75.762 3.465 2zm-56.995-140h6.972c.701 0 1.373.188 1.963.52l10.693-18.52c.715-1.238 2.035-2 3.465-2h34.641c1.43 0 2.75.762 3.465 2l17.32 30c.713 1.238.713 2.762 0 4l-17.32 30c-.715 1.238-2.035 2-3.465 2h-20.739c.713 1.238.713 2.762 0 4l-2.309 4h29.977l24.248-42-24.248-42h-48.5zm-68.085 50 24.248 42h17.692 30.809l24.248-42-24.248-42h-48.5zm-35.752 86h49.977l20.785-36h-10.716l-15.011 26c-.715 1.238-2.035 2-3.465 2h-34.64c-1.43 0-2.75-.762-3.465-2l-17.32-30c-.713-1.238-.713-2.762 0-4l17.32-30c.715-1.238 2.035-2 3.465-2h25.357l-4.619-8h-27.668l-24.248 42zm152.748 6-24.248-42h-17.691-30.809l-24.248 42 24.248 42h48.5zm-27.712-32 17.32 30c.713 1.238.713 2.762 0 4l-17.32 30c-.715 1.238-2.035 2-3.465 2h-34.641c-1.43 0-2.75-.762-3.465-2l-17.32-30c-.713-1.238-.713-2.762 0-4l17.32-30c.715-1.238 2.035-2 3.465-2h34.641c1.429 0 2.75.762 3.465 2zm9.236 32-15.01-26h-30.023l-15.01 26 15.01 26h30.023z" fill="url(#SVGID_1_)"/></g></svg>